<?xml version="1.0" encoding="UTF-8"?>
<svg id="Layer_1" data-name="Layer 1" xmlns="http://www.w3.org/2000/svg" width="699.9" height="718.4" version="1.1" viewBox="0 0 699.9 718.4">
  <defs>
    <style>
      .cls-1 {
        fill: #fff;
        stroke-width: 0px;
      }
    </style>
  </defs>
  <path class="cls-1" d="M18.2,520.1c-3.3-7.8-6.5-15.6-9.6-23.4-23.6-59.4,6-113.1,32.4-165.6l38.2-76c7.7-15.3,19.5-28.2,34-37.2l110-68.3,108.7-112.4c6.7-7,15.4-11.9,24.8-14.2l74-17.9c35.8-8.6,51.2-7.2,62.8,9.3,40.1,56.9,66.9,103.7,102.6,160.4,19.4,30.9,64.3,101.8,67.1,106.5,8.6,14.5,5.1,26.6,4.8,43.2-.8,38.3,6,76.8,20,112.5,4.2,10.6,9,21.1,11.2,32.3,2,10.1-.7,74-2.8,95.6-1.7,17.6-43.2,83.1-58.1,91.1-16.4,8.8-137.8,53.4-164.6,61s-143.1-18.9-203.4-28.2c-37.3-5.7-74.7-11.4-112-17.1-32.4-4.9-64.6-1.2-82.7-33.9-21.3-38.3-40.4-77.6-57.4-117.8h0Z"/>
  <path class="cls-1" d="M158.3,671.7c37.3,5.7,74.7,11.4,112,17.1,19.4,3,44.7,7.7,70.9,12.6-17.6-20.9-43.9-45.6-61.6-66.5-3.8-4.5-7.7-9.2-9.1-14.9-1.4-6.1.2-12.4,1.9-18.5,5.4-19.9,6.8-41.4,12.1-61.3-33.3,7.7-110.1,22.5-116.4,20.7-7-2-12.7-7.1-18.1-12-39.6-36.1-70.5-72.6-100.8-116.6-3.6-5.2-7.2-10.6-8.5-16.8-1.2-5.8-.3-11.8.6-17.6,2.2-14.5,7.2-54.7,11.3-90.1l-11.8,23.3c-26.3,52.5-55.9,106.1-32.2,165.6,3.1,7.9,6.3,15.7,9.6,23.4,17,40.2,36.1,79.5,57.3,117.7,18.1,32.7,50.3,29,82.7,33.9Z"/>
  <path class="cls-1" d="M494,15.1c-7.7-9.1-22.7-7.3-38.4,7.1l-56.6,56.6c-3.5,3.5-5.4,8.3-5.1,13.2l6.1,115.6c.2,3.9,1.6,7.5,4.1,10.4,20.1,23.5,91.2,136.4,111.9,136.4s56.5-80.1,74.8-79.7c3.1,0,19.4,1.1,35.4,5.9,14.9,4.5,20.7-15.9,17.6-30.4-15.4-24.4-36.1-57.1-47.7-75.6-35.6-56.4-62.3-103.1-102.1-159.7h0Z"/>
  <path class="cls-1" d="M230.5,242.7c20.8-3.1,90.2-14.9,103.3-20.1,25.5-10.1,48-52.9,62.9-76,0,0,5.1,75.2,0,104.6-3.6,20.4-17,127.3-30.5,152.9l-81.6,136-119.9-119.9c-10.2-10.2-16.7-15.6-20.4-30-8.4-33-23.7-81.7-23.8-110.4s77.3-32.2,110.1-37.1h0Z"/>
  <path class="cls-1" d="M382.2,82.6c-8-9.6-10.2-23.1-7.5-35.2,2.3-10.1,23.3-29.7,30.1-35.9l-48.1,11.6c-9.4,2.3-18,7.2-24.8,14.2l-108.7,112.4s105.3-43.9,158.9-67.1Z"/>
  <path class="cls-1" d="M687.9,437.1c-10.5-26.8-16.9-55-19.1-83.7-35.9,24.6-55.9,56.4-113.7,64.2-15.3,2.1-39,4.9-53.9,8.9-18.5,4.9-35.6,18.6-63.4,21.1-19.8,1.9-69.6.4-62.1,11.6s52.2,33.6,63.3,42.6c15.8,12.7,29.6,27.6,42.8,43,6.9,8.1,17.2,27.6,29.2,32.9,3.1,1.4,6.3,1.7,9.6.8,5.7-1.7,10.2-5.8,14.7-9.7,43-38.1,91.4-69.7,143.6-93.9,5.6-2.6,11.6-5.4,14.3-10.9,1.2-2.4,1.7-5.7,1.7-9.3-2.2-5.9-4.6-11.7-6.9-17.6Z"/>
  <path class="cls-1" d="M699.1,469.4c-.8-4.1-2-8.1-3.4-12-1.1,3.7-3.4,7.7-8.4,11.6-14.4,11-69.8,27.9-130.8,81.4-39.8,34.9-39.9,39.6-48.4,78-14,62.9-36.3,85.8-40.5,89.7,2.3-.3,4.4-.6,6.1-1.1,26.9-7.6,148.2-52.3,164.6-61,14.9-7.9,56.4-73.5,58.1-91.1,2.1-21.5,4.8-85.4,2.8-95.5Z"/>
</svg>