<?xml version="1.0" encoding="UTF-8"?>
<svg id="_2" data-name="2" xmlns="http://www.w3.org/2000/svg" width="800" height="748" version="1.1" viewBox="0 0 800 748">
  <defs>
    <style>
      .cls-1 {
        fill: #fff;
        stroke-width: 0px;
      }
    </style>
  </defs>
  <path class="cls-1" d="M320,693c33.9-33.8,54.9-80.9,54.9-132.5,0-21.4-3.8-41.9-10.4-61.1l247.4,188.6c53.7,40.9,130.4,30.6,171.3-23.1l16.8-22.1-352.6-268.9L800,105.1l-16.8-22.1c-40.9-53.7-117.6-64-171.3-23.1l-247.4,188.6c6.7-19.2,10.4-39.8,10.4-61.1,0-51.6-21-98.8-54.9-132.5C286.2,21,239.1,0,187.5,0c-51.6,0-98.8,21-132.5,54.9C21.1,88.7,0,135.9,0,187.5c0,51.6,21,98.8,54.9,132.6,29.6,29.7,69.5,49.5,113.7,54-44.2,4.4-84.1,24.2-113.7,54C21.1,461.7,0,508.8,0,560.5c0,51.6,21,98.8,54.9,132.5,33.8,33.8,80.9,54.9,132.5,54.9,51.6,0,98.8-21.1,132.6-54.9ZM121.2,253.7c-17.1-17.1-27.5-40.2-27.5-66.3,0-26,10.4-49.2,27.4-66.3,17.1-17,40.3-27.4,66.3-27.4,26,0,49.2,10.4,66.3,27.4,17,17.1,27.4,40.3,27.4,66.3,0,26-10.4,49.2-27.4,66.3-17.1,17-40.2,27.4-66.3,27.4-26,0-49.2-10.4-66.3-27.4ZM121.2,626.8c-17.1-17.1-27.5-40.3-27.5-66.3s10.4-49.2,27.4-66.3c17.1-17,40.3-27.4,66.3-27.4,26,0,49.2,10.4,66.3,27.4,17,17.1,27.4,40.2,27.4,66.3,0,26-10.4,49.1-27.4,66.3-17.1,17-40.2,27.4-66.3,27.4-26,0-49.2-10.4-66.3-27.5Z"/>
</svg>